<mxfile host="Electron" agent="Mozilla/5.0 (Macintosh; Intel Mac OS X 10_15_7) AppleWebKit/537.36 (KHTML, like Gecko) draw.io/26.0.9 Chrome/128.0.6613.186 Electron/32.2.5 Safari/537.36" version="26.0.9">
  <diagram id="R2lEEEUBdFMjLlhIrx00" name="Page-1">
    <mxGraphModel dx="707" dy="649" grid="1" gridSize="10" guides="1" tooltips="1" connect="1" arrows="1" fold="1" page="1" pageScale="1" pageWidth="850" pageHeight="1100" math="0" shadow="0" extFonts="Permanent Marker^https://fonts.googleapis.com/css?family=Permanent+Marker">
      <root>
        <mxCell id="0" />
        <mxCell id="1" parent="0" />
        <mxCell id="5RrLINibwwFH8sWrMgHN-2" value="Booking" style="swimlane;childLayout=stackLayout;horizontal=1;startSize=30;horizontalStack=0;rounded=1;fontSize=14;fontStyle=0;strokeWidth=2;resizeParent=0;resizeLast=1;shadow=0;dashed=0;align=center;arcSize=4;whiteSpace=wrap;html=1;fillColor=#CCFFCC;" parent="1" vertex="1">
          <mxGeometry x="220" y="290" width="110" height="90" as="geometry" />
        </mxCell>
        <mxCell id="5RrLINibwwFH8sWrMgHN-3" value="&lt;u&gt;bookingID&lt;/u&gt;&lt;br&gt;checkIn&lt;div&gt;checkOut&lt;/div&gt;" style="align=left;strokeColor=none;fillColor=none;spacingLeft=4;fontSize=12;verticalAlign=top;resizable=0;rotatable=0;part=1;html=1;" parent="5RrLINibwwFH8sWrMgHN-2" vertex="1">
          <mxGeometry y="30" width="110" height="60" as="geometry" />
        </mxCell>
        <mxCell id="5RrLINibwwFH8sWrMgHN-4" value="Guest" style="swimlane;childLayout=stackLayout;horizontal=1;startSize=30;horizontalStack=0;rounded=1;fontSize=14;fontStyle=0;strokeWidth=2;resizeParent=0;resizeLast=1;shadow=0;dashed=0;align=center;arcSize=4;html=1;fillColor=#CCFFCC;whiteSpace=wrap;" parent="1" vertex="1">
          <mxGeometry x="470" y="340" width="120" height="120" as="geometry" />
        </mxCell>
        <mxCell id="5RrLINibwwFH8sWrMgHN-5" value="&lt;u&gt;guestID&lt;/u&gt;&lt;div&gt;name(first, last)&lt;/div&gt;&lt;div&gt;&lt;span style=&quot;background-color: transparent; color: light-dark(rgb(0, 0, 0), rgb(255, 255, 255));&quot;&gt;address(line1, line2,&lt;/span&gt;&lt;br&gt;&lt;/div&gt;&lt;div&gt;&amp;nbsp; &amp;nbsp; &amp;nbsp; &amp;nbsp; &amp;nbsp; &amp;nbsp; &amp;nbsp; city, state,&lt;/div&gt;&lt;div&gt;&amp;nbsp; &amp;nbsp; &amp;nbsp; &amp;nbsp; &amp;nbsp; &amp;nbsp; &amp;nbsp; zip, phone)&lt;/div&gt;" style="align=left;strokeColor=none;fillColor=none;spacingLeft=4;fontSize=12;verticalAlign=top;resizable=0;rotatable=0;part=1;html=1;" parent="5RrLINibwwFH8sWrMgHN-4" vertex="1">
          <mxGeometry y="30" width="120" height="90" as="geometry" />
        </mxCell>
        <mxCell id="5RrLINibwwFH8sWrMgHN-6" value="Room" style="swimlane;childLayout=stackLayout;horizontal=1;startSize=30;horizontalStack=0;rounded=1;fontSize=14;fontStyle=0;strokeWidth=2;resizeParent=0;resizeLast=1;shadow=0;dashed=0;align=center;arcSize=4;whiteSpace=wrap;html=1;fillColor=#CCFFCC;" parent="1" vertex="1">
          <mxGeometry x="470" y="200" width="110" height="90" as="geometry" />
        </mxCell>
        <mxCell id="5RrLINibwwFH8sWrMgHN-7" value="&lt;u&gt;roomNumber&lt;/u&gt;&lt;div&gt;type&lt;/div&gt;&lt;div&gt;rate&lt;/div&gt;" style="align=left;strokeColor=none;fillColor=none;spacingLeft=4;fontSize=12;verticalAlign=top;resizable=0;rotatable=0;part=1;html=1;" parent="5RrLINibwwFH8sWrMgHN-6" vertex="1">
          <mxGeometry y="30" width="110" height="60" as="geometry" />
        </mxCell>
        <mxCell id="5RrLINibwwFH8sWrMgHN-8" value="" style="edgeStyle=entityRelationEdgeStyle;fontSize=12;html=1;endArrow=ERzeroToMany;rounded=0;startArrow=ERmandOne;startFill=0;entryX=1.009;entryY=0.117;entryDx=0;entryDy=0;entryPerimeter=0;endFill=0;" parent="1" source="5RrLINibwwFH8sWrMgHN-6" target="5RrLINibwwFH8sWrMgHN-3" edge="1">
          <mxGeometry width="100" height="100" relative="1" as="geometry">
            <mxPoint x="410" y="380" as="sourcePoint" />
            <mxPoint x="390" y="390" as="targetPoint" />
            <Array as="points">
              <mxPoint x="250" y="390" />
              <mxPoint x="190" y="380" />
              <mxPoint x="370" y="360" />
              <mxPoint x="350" y="310" />
              <mxPoint x="380" y="390" />
              <mxPoint x="240" y="380" />
            </Array>
          </mxGeometry>
        </mxCell>
        <mxCell id="b8WcvttcZZvEnRsSEPFx-1" value="forRoom" style="edgeLabel;html=1;align=center;verticalAlign=middle;resizable=0;points=[];" parent="5RrLINibwwFH8sWrMgHN-8" vertex="1" connectable="0">
          <mxGeometry x="-0.0124" relative="1" as="geometry">
            <mxPoint x="-21" y="-11" as="offset" />
          </mxGeometry>
        </mxCell>
        <mxCell id="5RrLINibwwFH8sWrMgHN-9" value="" style="edgeStyle=entityRelationEdgeStyle;fontSize=12;html=1;endArrow=ERoneToMany;rounded=0;startArrow=ERmandOne;startFill=0;entryX=1;entryY=0.5;entryDx=0;entryDy=0;endFill=0;" parent="1" source="5RrLINibwwFH8sWrMgHN-4" target="5RrLINibwwFH8sWrMgHN-3" edge="1">
          <mxGeometry width="100" height="100" relative="1" as="geometry">
            <mxPoint x="480" y="410" as="sourcePoint" />
            <mxPoint x="320" y="295" as="targetPoint" />
            <Array as="points">
              <mxPoint x="260" y="400" />
              <mxPoint x="200" y="390" />
              <mxPoint x="380" y="370" />
              <mxPoint x="360" y="320" />
              <mxPoint x="390" y="400" />
              <mxPoint x="250" y="390" />
            </Array>
          </mxGeometry>
        </mxCell>
        <mxCell id="b8WcvttcZZvEnRsSEPFx-2" value="forGuest" style="edgeLabel;html=1;align=center;verticalAlign=middle;resizable=0;points=[];" parent="5RrLINibwwFH8sWrMgHN-9" vertex="1" connectable="0">
          <mxGeometry x="0.0838" y="3" relative="1" as="geometry">
            <mxPoint x="-13" y="11" as="offset" />
          </mxGeometry>
        </mxCell>
      </root>
    </mxGraphModel>
  </diagram>
</mxfile>
